<svg version="1.1" id="Layer_1" xmlns="http://www.w3.org/2000/svg" xmlns:xlink="http://www.w3.org/1999/xlink" x="0px" y="0px"
	 width="100%" viewBox="0 0 1024 1024" enable-background="new 0 0 1024 1024" xml:space="preserve">
<path fill="#000000" opacity="1.000000" stroke="none" 
	d="
M560.356018,486.667389 
	C561.692688,489.566925 561.809387,491.928467 560.386536,494.609009 
	C550.322021,513.569763 540.546509,532.684692 530.396667,551.599060 
	C513.721680,582.673096 496.283173,613.330627 479.915771,644.576660 
	C458.977631,684.548462 437.734924,724.360840 416.581299,764.219604 
	C405.811096,784.513428 394.897766,804.731384 384.181458,825.053406 
	C382.524658,828.195374 380.983337,829.861328 377.280701,827.922424 
	C373.831482,826.116150 371.097473,824.887451 372.913391,819.745850 
	C384.051453,788.208923 394.815155,756.539978 405.753937,724.932434 
	C416.586334,693.632263 427.479340,662.353027 438.339722,631.062500 
	C438.776398,629.804321 439.346802,628.549927 439.515259,627.249817 
	C439.896149,624.309814 442.793732,621.499817 441.251587,618.705505 
	C439.689178,615.874390 436.065002,617.473816 433.389221,616.933533 
	C431.201508,616.491760 429.978363,615.130127 428.880676,613.351807 
	C426.270752,609.123779 425.157410,609.148987 422.356262,613.409546 
	C421.440399,614.802490 420.750153,616.622742 418.975555,616.865479 
	C415.721619,617.310547 411.892181,618.459595 409.360229,616.080994 
	C406.566589,613.456543 410.141907,611.006836 411.147369,608.628479 
	C412.306213,605.887085 413.744019,603.141174 415.612885,600.847046 
	C419.939423,595.536255 419.121765,590.602051 415.283417,585.591125 
	C414.677399,584.799988 414.164337,583.934204 413.644775,583.080750 
	C410.530914,577.965820 413.499542,572.345093 419.502930,572.022095 
	C421.827576,571.897034 422.433594,573.910400 423.422821,575.376099 
	C426.822998,580.413940 428.100250,580.462219 431.713104,575.619080 
	C435.637024,570.358948 436.250519,570.377197 441.427979,574.392090 
	C443.896271,576.306152 444.560425,578.107483 442.460938,580.600342 
	C442.034515,581.106689 441.801208,581.791443 441.334564,582.245789 
	C432.788239,590.566833 433.712036,599.474915 439.601379,608.744141 
	C440.479492,610.126160 440.871094,612.212952 442.775360,612.254089 
	C445.118591,612.304626 445.366333,609.994385 445.934662,608.330200 
	C452.496613,589.115662 459.049255,569.897888 465.542358,550.659973 
	C468.560822,541.716858 468.499573,541.698242 478.007202,541.697144 
	C483.839508,541.696411 489.680542,541.483215 495.502106,541.731140 
	C504.554321,542.116699 515.277771,532.866455 516.674500,523.771973 
	C517.951599,515.456604 518.203308,507.189545 516.556702,498.922424 
	C514.624939,489.223755 506.862885,482.134827 496.937134,481.268829 
	C493.781525,480.993469 492.653595,479.814484 492.562256,476.650024 
	C492.367798,469.914612 495.187164,463.972748 497.188354,457.856934 
	C501.482025,444.735443 505.521729,431.474396 510.833527,418.758453 
	C516.147888,406.036377 516.937805,392.811188 516.611267,379.609467 
	C515.770081,345.589447 522.337585,312.819244 530.895325,280.179749 
	C534.604614,266.032318 536.291626,251.414871 536.111206,236.673599 
	C536.048889,231.584747 534.738953,227.341248 530.560242,223.972137 
	C523.316895,218.132294 518.277771,210.521149 514.324219,201.984741 
	C504.615906,216.377090 495.025848,230.508850 485.540558,244.710556 
	C482.880707,248.692902 479.886597,250.823593 475.180573,247.969208 
	C472.943207,246.612183 471.836151,248.149338 470.778595,249.755722 
	C464.286652,259.616455 456.816956,268.852661 452.293243,279.952911 
	C449.728546,286.246063 444.034271,287.099945 439.359497,282.248169 
	C436.004272,278.765961 435.918121,276.221985 439.828156,272.421478 
	C449.382446,263.134796 455.888397,251.692245 463.130737,240.873520 
	C457.173187,233.813171 457.112457,233.631485 462.188202,226.077164 
	C469.807678,214.737015 477.522705,203.461151 485.175079,192.143036 
	C490.866028,183.725876 495.625000,182.312439 505.124420,186.286636 
	C505.875244,186.600739 506.622772,186.922699 508.101898,187.551270 
	C507.275269,180.340424 506.665710,173.654495 506.577209,166.923477 
	C506.277954,144.165634 515.698730,124.983894 528.367554,107.071167 
	C534.945068,97.771049 543.256104,90.010582 552.923523,83.910378 
	C556.045227,81.940582 555.418152,79.666710 554.705933,77.040215 
	C549.264832,56.973698 543.797424,36.914196 538.404175,16.834816 
	C536.370972,9.264898 536.589294,9.068654 544.596191,9.027630 
	C557.510193,8.961465 557.335022,9.029841 562.121155,21.291031 
	C568.234802,36.953217 574.711670,52.473343 580.916992,68.100388 
	C581.946106,70.691910 583.120422,71.520782 586.104858,71.125648 
	C620.831116,66.527946 651.111450,88.658585 657.225098,123.440559 
	C664.426147,164.408493 650.156921,197.208374 618.146118,222.840561 
	C604.977051,233.385529 589.720947,238.618286 572.944519,239.149200 
	C569.266418,239.265594 567.447510,240.938004 566.060913,243.757523 
	C559.450073,257.200806 552.857239,270.643433 547.909241,284.834015 
	C540.974304,304.722595 536.525452,325.173645 534.614075,346.094269 
	C533.523987,358.024536 533.692078,370.093903 534.574463,382.055786 
	C535.860901,399.495911 538.918274,416.706024 543.215271,433.649414 
	C547.756165,451.554718 553.306274,469.161621 560.356018,486.667389 
M601.336121,211.837982 
	C629.109558,201.568832 648.942322,168.790588 640.065552,136.829407 
	C635.640808,120.897842 626.433899,108.754517 611.760559,101.138214 
	C582.616760,86.010811 547.619629,99.473740 532.817261,127.727638 
	C521.689880,148.966797 521.605835,170.479965 534.655029,190.898590 
	C548.768677,212.982712 574.329102,220.796310 601.336121,211.837982 
M483.528564,225.058029 
	C490.299286,215.182053 497.074371,205.309036 503.836670,195.427277 
	C505.029694,193.683914 506.046478,191.999146 503.415894,190.465057 
	C501.053925,189.087616 499.906006,190.173203 498.624359,192.107864 
	C491.828339,202.366653 484.927826,212.556259 478.053772,222.763290 
	C474.835999,227.541199 471.596252,232.304306 468.459137,236.937302 
	C469.907806,238.801605 471.153931,239.779602 473.415955,239.877411 
	C476.578613,235.233292 479.843079,230.439713 483.528564,225.058029 
M540.270996,482.744629 
	C541.831543,480.341187 542.856079,477.732849 538.693726,477.451508 
	C533.566895,477.105011 528.344910,476.941559 523.292847,478.290894 
	C519.859497,479.207855 519.474060,481.132263 522.037048,483.580536 
	C526.626282,487.964386 533.602173,487.851807 540.270996,482.744629 
M521.655151,464.066406 
	C520.007996,465.535797 518.660950,467.135498 519.315369,470.217346 
	C525.591675,470.093872 531.962219,470.295532 538.167236,468.908783 
	C541.575012,468.147217 540.949402,465.779144 538.957520,463.717438 
	C534.810791,459.425262 528.529297,459.392303 521.655151,464.066406 
M448.011902,270.600281 
	C446.369171,272.335175 444.726440,274.070099 442.262787,276.671967 
	C448.409485,275.571381 451.012054,272.719513 452.104706,267.820648 
	C450.139008,268.048492 449.524475,269.388794 448.011902,270.600281 
M463.276550,251.866837 
	C464.402771,250.151840 465.528992,248.436844 466.655182,246.721832 
	C466.341553,246.531494 466.027924,246.341156 465.714294,246.150818 
	C462.037445,251.591400 458.360626,257.031982 454.683777,262.472565 
	C455.025696,262.701172 455.367615,262.929810 455.709564,263.158417 
	C458.104309,259.593323 460.499054,256.028259 463.276550,251.866837 
M500.943878,204.335876 
	C499.840790,206.010468 498.737732,207.685059 497.634644,209.359665 
	C497.926453,209.530884 498.218292,209.702118 498.510101,209.873337 
	C501.553589,205.277100 504.597076,200.680847 507.640564,196.084595 
	C507.378632,195.914062 507.116699,195.743515 506.854767,195.572983 
	C505.013885,198.299271 503.173004,201.025558 500.943878,204.335876 
M480.983582,233.914856 
	C481.074219,234.147491 481.164856,234.380127 481.255493,234.612762 
	C481.394928,234.531784 481.584045,234.484940 481.666534,234.364853 
	C483.882141,231.139786 486.086823,227.907227 488.293365,224.675934 
	C488.065674,224.521149 487.837982,224.366379 487.610321,224.211609 
	C485.470795,227.297882 483.331299,230.384140 480.983582,233.914856 
z"/>
<path fill="#000000" opacity="1.000000" stroke="none" 
	d="
M579.602905,536.328064 
	C585.724548,538.640747 591.502380,540.746948 596.630737,544.311096 
	C602.506409,548.394653 603.265625,550.547852 601.486755,557.345581 
	C599.555237,564.726746 595.529968,571.064758 591.801575,577.548157 
	C571.216736,613.344421 549.570374,648.502991 527.953613,683.679199 
	C503.561096,723.372192 479.250732,763.115967 454.753906,802.744446 
	C446.269745,816.469299 438.306915,830.546387 428.712189,843.551880 
	C424.341217,849.476562 422.878937,849.547241 416.020599,846.673279 
	C412.322327,845.123535 408.644806,843.573181 405.503265,841.016296 
	C402.939636,838.929688 401.974365,836.635681 403.227570,833.148315 
	C405.615814,826.502625 409.752533,820.799011 413.138977,814.776001 
	C419.829651,802.876282 424.458771,789.991211 431.294037,778.245728 
	C441.816589,760.164124 450.463623,741.124573 459.905273,722.514526 
	C466.262421,709.984253 473.578613,697.874878 478.753143,684.762390 
	C479.715515,682.323730 481.692810,682.614319 483.261139,681.808228 
	C480.995056,676.623779 482.393372,673.500000 488.699005,669.261719 
	C488.388672,664.438599 501.144470,637.997864 506.386444,636.927673 
	C502.119110,632.949097 509.938385,630.327026 506.807983,626.602600 
	C509.594543,624.430603 511.911316,627.459351 514.677490,626.293457 
	C513.566101,624.250000 509.839630,624.250000 510.444153,620.798645 
	C514.081421,619.133118 517.131226,622.687988 520.554749,622.413574 
	C521.268433,621.629517 520.799316,621.122070 520.311646,620.678467 
	C514.551331,615.438538 514.439270,614.400574 519.297241,607.898987 
	C519.811523,607.210632 520.424561,606.706726 520.208496,605.778931 
	C519.264587,601.725830 522.107422,601.964050 524.690186,601.922058 
	C525.068909,600.281982 522.814087,599.502869 523.683472,597.393250 
	C526.171387,595.619812 528.662170,597.817871 531.503174,598.331238 
	C530.311462,595.744507 524.861328,594.355835 527.630005,591.690857 
	C529.809998,589.592529 526.305237,580.721191 534.504517,585.930115 
	C534.243958,583.575989 531.976196,582.752930 532.779419,580.564758 
	C533.918579,578.617859 535.952881,580.506287 537.566406,579.917236 
	C536.805725,578.394226 534.935303,577.626892 535.065979,575.691589 
	C537.655701,572.649780 540.449097,569.791992 540.281433,565.274048 
	C540.209351,563.331726 542.620544,563.146545 543.796570,562.108215 
	C547.310852,559.005493 546.837402,554.381836 548.593994,550.637024 
	C551.571411,544.289490 554.633850,537.928772 557.411194,531.461365 
	C558.447327,529.048767 561.233093,529.939575 563.293640,530.469421 
	C568.781006,531.880310 574.082336,533.851074 579.602905,536.328064 
z"/>
<path fill="#000000" opacity="1.000000" stroke="none" 
	d="
M627.084717,346.087585 
	C631.792114,334.481110 636.061646,323.117798 639.460205,311.438232 
	C640.655701,307.329651 640.803650,303.420624 639.495300,299.222351 
	C633.278931,279.276031 631.939575,259.002869 640.486389,239.643951 
	C644.766602,229.949203 642.365051,221.614883 640.316650,212.674469 
	C639.724304,210.088928 639.662170,207.858597 642.799866,207.272430 
	C659.686035,204.117905 674.492981,195.661362 690.155945,189.287247 
	C714.233948,179.488632 737.667053,182.562927 758.769958,197.901199 
	C775.039062,209.726135 783.671997,226.490341 787.172363,246.136475 
	C794.650208,288.105988 764.839233,333.955109 723.604004,343.581726 
	C713.281067,345.991669 702.710266,346.689484 692.402222,344.320221 
	C683.953308,342.378265 677.373962,346.420959 670.636292,349.541626 
	C651.013123,358.630463 635.823669,373.199036 622.677063,390.087616 
	C617.666077,396.524811 612.862061,403.102142 608.454651,409.968384 
	C607.539612,411.394012 606.483826,412.868683 604.557190,412.648590 
	C597.401611,411.831268 590.277527,412.293854 583.145447,412.910950 
	C582.758911,412.944397 582.329468,412.481750 581.669800,412.108521 
	C582.472595,409.286774 585.018555,407.992126 586.788452,406.223206 
	C604.104065,388.917328 616.877380,368.596588 627.084717,346.087585 
M654.981567,288.553436 
	C661.820496,316.691315 689.221802,335.477753 719.084595,328.140839 
	C743.912537,322.040955 759.523438,305.585510 766.505005,281.442535 
	C772.028076,262.342987 769.440674,243.760437 756.770386,228.013535 
	C740.589844,207.903870 715.666260,202.576981 691.846802,212.931015 
	C663.803345,225.121185 648.433716,256.138184 654.981567,288.553436 
z"/>
<path fill="#000000" opacity="1.000000" stroke="none" 
	d="
M467.017700,525.957642 
	C463.688354,525.939392 460.854004,525.977478 458.022766,525.900513 
	C449.850281,525.678345 446.960693,522.782898 446.925385,514.537720 
	C446.861145,499.539886 446.888916,484.541595 446.898865,469.543518 
	C446.905792,459.044983 446.922272,448.546295 446.988007,438.048004 
	C447.007385,434.950348 446.599213,431.745148 449.651398,428.578552 
	C441.538483,427.985992 434.395752,428.413696 427.327576,427.447357 
	C417.848206,426.151398 414.511993,422.432251 414.908936,412.919586 
	C415.519867,398.279022 416.122375,383.638062 416.706360,368.996429 
	C416.973145,362.308105 418.435883,360.729095 425.024628,360.667267 
	C428.032837,360.638977 430.581909,360.193878 431.911133,356.461609 
	C422.179932,357.170776 412.787933,357.787689 403.408081,358.553131 
	C385.164490,360.041962 366.932617,361.675659 348.686768,363.135559 
	C327.289337,364.847595 305.882477,366.442047 284.479156,368.080414 
	C274.365234,368.854614 264.255585,369.698914 254.133530,370.348145 
	C247.032974,370.803589 246.183014,371.540955 246.075745,378.629974 
	C245.990906,384.235382 245.707458,389.820404 244.818878,395.289978 
	C241.898804,395.883759 240.889725,393.794891 239.603439,392.457428 
	C236.949982,389.698395 234.525253,386.721100 231.945435,383.889191 
	C227.507782,379.017822 226.661942,378.936707 221.046265,382.705719 
	C215.929077,386.140167 210.853775,389.637726 205.708054,393.028564 
	C203.968399,394.174927 202.340088,395.769684 199.689972,395.377350 
	C199.115372,392.921570 200.824295,391.316711 201.837997,389.558289 
	C205.248627,383.641968 208.670242,377.727905 212.274658,371.929199 
	C214.030930,369.103729 213.677689,367.145874 211.018997,365.146423 
	C207.431656,362.448456 204.050995,359.474762 200.597366,356.600555 
	C199.586716,355.759460 198.242569,354.935333 198.821243,353.363617 
	C199.381073,351.843140 200.933594,351.911560 202.251343,351.898224 
	C207.750183,351.842560 213.261612,351.607849 218.744965,351.891907 
	C223.193146,352.122345 225.824356,350.252533 227.940811,346.513153 
	C232.451828,338.542999 237.267136,330.744995 241.962830,322.879486 
	C242.546921,321.901093 242.940445,320.737671 244.527252,320.280884 
	C246.729630,321.343323 246.120193,323.543945 246.121078,325.370758 
	C246.124313,332.036072 245.994812,338.701355 245.940460,345.366852 
	C245.889725,351.588837 246.091202,351.807343 252.381699,351.808594 
	C302.542206,351.818695 352.702698,351.816437 402.863190,351.817322 
	C411.695404,351.817474 420.527771,351.785278 429.359741,351.830780 
	C431.991791,351.844360 434.143372,351.599396 435.325775,348.594299 
	C436.395203,345.876282 439.046600,345.311737 441.671173,346.001526 
	C444.978271,346.870667 448.231995,346.776123 451.577209,346.421814 
	C455.843872,345.969971 458.095154,347.884796 458.311584,352.363007 
	C458.628387,358.916840 460.860504,361.183105 467.171753,361.924713 
	C472.762482,362.581604 474.410767,364.250397 474.284912,370.053864 
	C473.956329,385.206116 473.415161,400.353638 473.036682,415.505005 
	C472.919159,420.208771 471.382294,424.232483 467.539886,427.530457 
	C468.453430,428.106659 468.965088,428.698181 469.511841,428.732666 
	C475.053253,429.082123 476.064606,432.489990 476.021240,437.315704 
	C475.862518,454.978485 475.954742,472.643616 475.972534,490.307861 
	C475.979919,497.650543 476.002869,497.648956 483.503601,497.665527 
	C486.669830,497.672516 489.851746,497.891663 492.998535,497.649933 
	C497.468628,497.306519 499.599365,499.637970 500.033264,503.619751 
	C500.610840,508.920135 500.631256,514.268066 499.956665,519.576172 
	C499.409424,523.882080 496.956299,525.971252 492.510132,525.929260 
	C484.178986,525.850525 475.846222,525.941162 467.017700,525.957642 
M463.101166,408.380981 
	C464.072937,406.594757 464.507538,404.675049 464.622925,402.652374 
	C465.237854,391.874420 465.812317,381.093475 466.542664,370.323181 
	C466.764069,367.058228 465.134674,366.391876 462.366028,366.318481 
	C452.070374,366.045441 441.763092,365.875549 431.490784,365.201233 
	C426.534943,364.875946 424.531464,366.475128 424.558624,371.442108 
	C424.615875,381.914062 424.427734,392.387970 424.280243,402.860199 
	C424.211426,407.745728 427.181274,410.288635 431.331604,411.266876 
	C439.485199,413.188629 447.824646,413.199158 456.124084,412.380157 
	C458.582184,412.137604 460.898163,410.955109 463.101166,408.380981 
M425.909485,422.694458 
	C430.490051,423.744690 435.116791,423.486511 440.920593,423.509064 
	C434.794678,421.612854 429.833252,420.077118 424.073364,418.294189 
	C426.714752,416.297394 429.599945,416.689392 430.792419,414.358307 
	C422.573730,410.830170 420.814545,407.387726 421.144958,398.487457 
	C421.514343,388.538208 421.229736,378.564667 421.229736,372.963318 
	C420.739166,383.551849 420.085419,398.505341 419.330078,413.453674 
	C419.102203,417.963135 420.374451,421.329681 425.909485,422.694458 
M459.069458,418.044098 
	C460.193481,418.431885 461.845306,417.613647 462.441986,419.698456 
	C459.051117,421.282928 454.940857,420.974121 450.494904,423.858246 
	C454.767181,423.858246 457.574036,423.852722 460.380859,423.859467 
	C465.441681,423.871613 468.273163,421.308228 468.310333,416.300781 
	C468.423920,400.994415 468.351624,385.686646 468.351624,370.379456 
	C468.774231,370.379181 469.196869,370.378937 469.619476,370.378693 
	C467.609222,381.226685 468.644745,392.244202 467.638000,403.163330 
	C467.155914,408.392029 465.141876,411.983704 460.423859,414.075928 
	C458.743347,414.821136 457.351562,415.594543 459.069458,418.044098 
M451.906128,358.970062 
	C447.048584,358.258972 442.195435,357.591644 437.645874,360.106140 
	C443.353912,360.741180 449.015686,362.450653 455.917694,360.831757 
	C454.017273,359.896881 453.289551,359.538879 451.906128,358.970062 
z"/>
<path fill="#000000" opacity="1.000000" stroke="none" 
	d="
M260.698364,520.249390 
	C255.075150,507.787323 248.419495,496.289581 242.297028,484.414062 
	C240.491104,485.383514 241.190369,486.878876 241.182724,488.014801 
	C241.114258,498.171326 241.035217,508.330444 241.204178,518.484741 
	C241.276138,522.809448 239.621994,524.840881 235.243942,525.324646 
	C229.899460,525.914978 224.630081,525.855164 219.326996,525.140442 
	C216.209320,524.720337 214.670517,523.237610 214.679031,519.883972 
	C214.751328,491.410675 214.750076,462.937134 214.703308,434.463745 
	C214.698441,431.490387 215.711670,429.953918 218.797653,429.347473 
	C225.843246,427.962982 232.710739,428.795013 239.575958,430.337921 
	C242.761414,431.053802 243.850861,433.720581 245.160080,436.262970 
	C251.013702,447.630157 256.931641,458.964233 263.439148,471.489777 
	C263.592438,468.725464 263.750885,467.172943 263.752899,465.620270 
	C263.765991,455.463135 263.824158,445.304962 263.691864,435.149445 
	C263.646851,431.692993 265.021301,429.895630 268.419403,429.359589 
	C274.064575,428.469025 279.701477,428.543671 285.343872,429.236237 
	C288.431366,429.615204 290.070496,431.285034 290.069061,434.555603 
	C290.056580,462.862396 290.076965,491.169159 290.111328,519.475952 
	C290.115204,522.672363 288.588562,524.558289 285.471619,524.906677 
	C279.165070,525.611328 272.836060,525.545593 266.530273,524.887146 
	C263.868042,524.609131 261.890839,523.152649 260.698364,520.249390 
z"/>
<path fill="#000000" opacity="1.000000" stroke="none" 
	d="
M601.427246,517.325928 
	C594.370605,490.043762 587.444153,463.154144 580.474854,436.275696 
	C578.967102,430.460724 579.106140,430.174286 585.027771,429.279205 
	C591.964661,428.230682 598.855774,427.535980 605.819702,429.395691 
	C609.424683,430.358459 611.565796,432.023651 612.287781,435.924225 
	C615.192261,451.616669 618.330261,467.265930 621.400208,482.927582 
	C621.552612,483.704895 621.876709,484.448578 623.071655,485.276428 
	C624.970154,475.580200 626.921326,465.893890 628.748230,456.184235 
	C629.917542,449.969635 630.842834,443.709290 631.991943,437.490601 
	C632.833069,432.938141 635.484985,430.352875 640.184265,429.263397 
	C648.050354,427.439606 655.734436,428.566711 663.483704,429.694214 
	C666.545776,430.139709 666.697754,431.945618 666.034546,434.404388 
	C659.583618,458.321838 653.141541,482.241699 646.753418,506.175934 
	C645.682007,510.190155 644.797180,514.259705 643.979370,518.334473 
	C643.223267,522.101562 641.018982,524.224548 637.263672,524.663208 
	C627.655945,525.785645 618.059143,526.393311 608.395081,524.968750 
	C603.953430,524.313904 602.088196,521.780457 601.427246,517.325928 
z"/>
<path fill="#000000" opacity="1.000000" stroke="none" 
	d="
M365.905518,455.246948 
	C371.267334,476.103699 376.546448,496.555420 381.675323,517.044800 
	C383.467163,524.202942 383.074066,524.424011 375.725647,525.373352 
	C370.239044,526.082153 364.815613,526.389038 359.317535,525.431519 
	C355.221436,524.718140 352.691315,522.727966 351.949615,518.500061 
	C351.317993,514.899658 350.424347,511.345520 349.662537,507.767517 
	C349.093170,505.093231 347.531921,503.723358 344.728394,503.911621 
	C344.231445,503.944977 343.729156,503.899841 343.229370,503.889313 
	C328.720520,503.583008 328.582550,503.552917 325.526978,517.561707 
	C324.466187,522.425049 321.763275,524.539795 317.079590,525.247559 
	C312.238556,525.979004 307.486420,525.838501 302.666382,525.223572 
	C298.671112,524.713806 297.145599,523.091919 298.286316,518.878540 
	C302.327301,503.952423 306.159698,488.969666 310.045837,474.001801 
	C313.431732,460.960785 316.911011,447.941589 320.071777,434.845856 
	C321.005554,430.976898 322.813354,429.071991 326.803162,429.090454 
	C336.132782,429.133575 345.462891,429.081451 354.792786,429.063416 
	C357.902008,429.057373 359.639832,430.496368 360.374786,433.615234 
	C362.049896,440.724304 363.953217,447.779572 365.905518,455.246948 
M335.413940,471.790497 
	C334.611847,475.919586 332.766479,479.879822 333.077484,484.783813 
	C335.829254,484.783813 338.275940,484.788269 340.722656,484.782410 
	C342.775879,484.777527 343.983276,483.757996 343.573608,481.699554 
	C342.234253,474.969757 340.745300,468.269714 339.313843,461.558228 
	C338.924042,461.565430 338.534210,461.572632 338.144409,461.579834 
	C337.317688,464.725250 336.490997,467.870636 335.413940,471.790497 
z"/>
<path fill="#000000" opacity="1.000000" stroke="none" 
	d="
M900.375427,499.928711 
	C902.824219,500.530518 903.850281,502.000275 904.254700,503.891663 
	C904.670654,505.836731 905.096619,507.814484 905.174194,509.791443 
	C905.743958,524.309814 904.764038,525.309509 890.358337,525.318665 
	C879.028381,525.325928 867.698242,525.371765 856.368652,525.312317 
	C850.523071,525.281616 849.002747,523.745117 848.997498,517.826965 
	C848.973450,490.835175 848.975891,463.843231 849.039612,436.851532 
	C849.056274,429.782593 850.011353,428.939911 857.238342,428.907410 
	C870.400879,428.848175 883.563538,428.813019 896.726196,428.803192 
	C902.991394,428.798523 903.566223,429.479675 904.403625,435.924927 
	C904.901489,439.757629 905.033264,443.513855 904.380615,447.349182 
	C903.339294,453.468719 902.687439,454.124542 896.267151,454.139130 
	C891.102112,454.150879 885.936279,454.079803 880.772217,454.149841 
	C873.728638,454.245331 877.686768,459.810944 876.799744,462.783844 
	C875.807922,466.108307 878.837280,465.804260 880.972351,465.830078 
	C883.804321,465.864319 886.637207,465.831177 889.469421,465.853210 
	C890.467163,465.860992 891.494934,465.807922 892.456421,466.020447 
	C895.999939,466.803680 897.694580,471.024078 896.678162,478.037292 
	C896.122253,481.873413 897.634216,487.514221 890.604431,487.356842 
	C887.440491,487.286011 884.270691,487.445068 881.108459,487.344727 
	C878.148743,487.250885 876.794250,488.531738 876.888672,491.495911 
	C876.936218,492.990204 876.893799,494.505127 876.700012,495.985596 
	C876.314636,498.930847 877.759949,499.822052 880.443665,499.805115 
	C886.940857,499.764160 893.438721,499.836853 900.375427,499.928711 
z"/>
<path fill="#000000" opacity="1.000000" stroke="none" 
	d="
M399.685669,464.062958 
	C399.683868,462.243195 399.548828,460.895691 399.705963,459.583191 
	C400.256653,454.983673 398.678314,452.563446 393.674438,453.255951 
	C389.736053,453.800995 387.825226,451.634766 387.110657,448.059631 
	C386.915863,447.084961 386.780182,446.090668 386.715485,445.098999 
	C385.733002,430.042725 386.839355,428.825623 401.720886,428.794983 
	C411.698303,428.774475 421.678101,428.947021 431.652374,428.775909 
	C436.456787,428.693512 438.951996,430.279755 439.621979,435.399109 
	C440.193237,439.763947 440.402222,443.932739 439.446777,448.237946 
	C438.680206,451.692017 436.932312,453.690094 433.278717,453.270416 
	C428.492493,452.720581 427.261383,455.048981 427.329315,459.416199 
	C427.513123,471.229858 427.479248,483.049164 427.349060,494.864197 
	C427.308960,498.501862 428.695953,500.300781 432.314301,499.826965 
	C438.107483,499.068298 440.030151,502.393555 440.606140,507.303802 
	C440.761169,508.625305 440.938141,509.948273 441.004761,511.275574 
	C441.623932,523.608704 439.439392,525.971436 427.370911,525.984924 
	C416.719360,525.996826 406.067657,525.997742 395.416199,525.958740 
	C389.007874,525.935242 387.569366,524.634399 386.929749,518.194824 
	C386.484558,513.712952 386.606812,509.267944 387.497223,504.793549 
	C388.214355,501.189819 390.015564,499.404144 393.628571,499.845398 
	C398.605011,500.453125 399.897552,498.150818 399.765045,493.508057 
	C399.489777,483.862915 399.684753,474.204315 399.685669,464.062958 
z"/>
<path fill="#000000" opacity="1.000000" stroke="none" 
	d="
M723.383789,506.893250 
	C723.652649,508.634644 723.962097,509.941559 724.050354,511.263245 
	C724.827515,522.893127 722.521057,525.388062 711.086853,525.390930 
	C699.764404,525.393738 688.440552,525.303040 677.120361,525.466492 
	C673.078735,525.524841 671.021790,524.022827 670.273926,519.980103 
	C669.534851,515.985046 669.377869,511.975311 669.893921,508.056458 
	C670.656372,502.267029 671.129578,499.163696 678.399963,499.795837 
	C681.274719,500.045807 682.695923,498.766357 682.686462,495.738220 
	C682.646545,482.917511 682.626526,470.095795 682.760681,457.276154 
	C682.797791,453.725861 680.940308,453.259430 678.040833,453.217651 
	C671.456482,453.122833 670.539124,452.174683 669.646912,445.503235 
	C669.536560,444.678162 669.390930,443.854706 669.337830,443.025604 
	C668.549500,430.726074 670.331909,428.796448 682.482361,428.799805 
	C693.471741,428.802856 704.464722,428.983856 715.448792,428.747101 
	C720.080872,428.647278 722.370361,430.682404 722.807739,434.939453 
	C723.163208,438.398743 723.355347,441.929535 723.083801,445.386566 
	C722.588379,451.696716 721.201843,452.988037 714.802612,453.253479 
	C711.657837,453.383911 710.321472,454.513000 710.344666,457.731934 
	C710.435791,470.385742 710.491699,483.041962 710.322937,495.694122 
	C710.270325,499.637238 712.426575,500.140015 715.389709,499.867889 
	C720.294983,499.417358 723.026550,501.441956 723.383789,506.893250 
z"/>
<path fill="#000000" opacity="1.000000" stroke="none" 
	d="
M812.000854,525.334167 
	C806.840027,525.328918 802.177490,525.251221 797.518188,525.340454 
	C792.652100,525.433594 790.108643,522.897034 789.353027,518.344238 
	C789.055481,516.551208 789.013245,514.700562 789.011902,512.876038 
	C788.993652,487.739349 789.114319,462.601746 788.914734,437.466675 
	C788.872925,432.204224 790.442261,429.619141 795.913513,428.826019 
	C801.273010,428.049103 806.427429,427.924652 811.751587,428.910767 
	C816.306091,429.754333 818.242126,431.931976 818.201904,436.669952 
	C818.046265,454.980103 818.297302,473.294403 818.053833,491.602600 
	C817.989624,496.430054 819.466919,498.210754 824.288025,497.770447 
	C828.084412,497.423737 831.939819,497.763123 835.767578,497.706635 
	C838.929871,497.659973 840.713867,499.150146 841.402588,502.200500 
	C842.743225,508.138580 842.597839,514.046509 841.492554,520.011841 
	C840.794373,523.779785 838.774170,525.409607 834.973633,525.359741 
	C827.483826,525.261353 819.991760,525.333496 812.000854,525.334167 
z"/>
<path fill="#000000" opacity="1.000000" stroke="none" 
	d="
M759.198181,436.265137 
	C759.211975,454.895203 759.223022,473.054871 759.244934,491.214508 
	C759.252747,497.676727 759.264648,497.680237 765.950256,497.698212 
	C769.615540,497.708038 773.285278,497.817230 776.944702,497.671387 
	C780.167053,497.542999 781.961487,498.947479 782.589294,502.041779 
	C783.863464,508.322815 783.905273,514.601074 782.587524,520.879456 
	C781.949829,523.917542 780.177917,525.379211 776.965393,525.364563 
	C764.137329,525.305969 751.308228,525.425781 738.480652,525.329956 
	C733.203003,525.290527 730.731506,522.911255 730.715332,517.682617 
	C730.629395,489.860291 730.689575,462.037567 730.631470,434.215088 
	C730.625549,431.386993 731.802307,430.039703 734.498413,429.345795 
	C740.921875,427.692657 747.267212,427.643494 753.774841,428.986908 
	C757.787537,429.815308 759.668030,431.706238 759.198181,436.265137 
z"/>
<path fill="#000000" opacity="1.000000" stroke="none" 
	d="
M856.989014,596.324219 
	C857.574036,589.899231 858.097656,583.939575 858.665283,577.984070 
	C858.919922,575.312744 857.912842,571.741699 861.968201,571.212280 
	C866.210510,570.658386 870.909363,569.825745 873.304077,574.944214 
	C874.988098,578.543884 876.349854,582.294312 878.275879,587.005554 
	C878.796936,582.244690 879.334412,578.479797 879.592834,574.695862 
	C879.953491,569.415710 883.862366,571.194153 886.695679,571.054993 
	C889.727356,570.906128 891.466187,572.380920 891.071777,575.621460 
	C889.597473,587.734375 890.236694,599.904968 890.034729,612.052429 
	C889.987976,614.862976 889.786926,617.681091 886.044067,617.707336 
	C882.431030,617.732727 878.093323,619.454224 876.209290,614.352112 
	C874.195618,608.899109 872.234863,603.426453 869.117737,597.984375 
	C869.117737,602.606567 869.178772,607.229736 869.102356,611.850647 
	C869.004700,617.754333 867.770325,618.486694 860.680969,618.173584 
	C855.606812,617.949524 855.875977,614.859985 856.186768,611.245728 
	C856.600098,606.441345 856.707092,601.610596 856.989014,596.324219 
z"/>
<path fill="#000000" opacity="1.000000" stroke="none" 
	d="
M264.805786,613.144836 
	C262.880341,608.142273 261.086517,603.508240 259.292725,598.874146 
	C258.927338,598.885010 258.561981,598.895935 258.196625,598.906799 
	C258.196625,603.224060 258.077026,607.545532 258.226166,611.857666 
	C258.423676,617.568665 254.522003,617.011536 250.772949,617.132568 
	C246.890091,617.257812 245.511322,615.655640 245.619354,611.770996 
	C245.928909,600.637573 246.672882,589.543335 247.900513,578.478943 
	C248.183640,575.927124 247.675201,572.645325 251.227478,572.061279 
	C254.953323,571.448669 258.856873,570.847900 261.643402,574.732849 
	C263.703064,577.604492 264.429626,581.059998 266.579132,585.103333 
	C267.025696,581.794617 267.748413,579.417114 267.577240,577.105774 
	C267.185974,571.821472 270.321808,571.740234 274.210541,571.703796 
	C278.591522,571.662781 279.831116,573.813599 279.246948,577.628540 
	C277.601837,588.372009 278.376099,599.195557 278.063721,609.983032 
	C277.985474,612.684509 278.868988,616.218567 274.806122,616.701843 
	C271.196411,617.131287 266.950928,618.463806 264.805786,613.144836 
z"/>
<path fill="#000000" opacity="1.000000" stroke="none" 
	d="
M676.112915,617.585388 
	C663.715637,618.777039 663.629456,618.459778 666.577271,607.257446 
	C669.384399,596.589417 673.891724,586.592102 677.703125,576.314636 
	C679.473999,571.539490 683.006409,570.939087 687.179504,570.800293 
	C691.377014,570.660828 693.576965,573.153442 694.951721,576.631287 
	C697.970154,584.267090 698.595398,592.451660 700.218750,600.405090 
	C701.114868,604.795410 701.663818,609.255798 702.518188,613.655701 
	C703.112305,616.714966 701.892822,618.162720 698.914612,618.093872 
	C694.400940,617.989441 688.725952,620.020325 688.231995,612.249023 
	C688.129822,610.641296 686.357727,610.058044 684.711670,610.120483 
	C682.475281,610.205261 680.450195,610.620667 679.240356,612.876587 
	C678.403503,614.437073 678.454834,616.553406 676.112915,617.585388 
z"/>
<path fill="#000000" opacity="1.000000" stroke="none" 
	d="
M366.931671,572.667603 
	C375.131927,572.049988 382.924683,571.540771 390.723633,571.156921 
	C393.498627,571.020325 395.268951,572.401917 395.068634,575.340942 
	C394.858887,578.418457 396.332336,582.491333 391.345764,583.274353 
	C388.227081,583.764099 385.054474,583.900513 381.916504,584.281311 
	C380.019592,584.511536 377.842407,584.187500 376.584229,586.591492 
	C378.960541,589.628479 382.309570,588.515625 385.258118,588.504150 
	C388.058838,588.493225 390.259827,588.645142 390.262360,592.277588 
	C390.264648,595.565979 390.549744,598.828186 385.895844,599.132507 
	C383.576477,599.284241 381.254425,599.542175 378.963257,599.928101 
	C377.364380,600.197327 375.269073,600.429504 375.591309,602.732056 
	C375.896057,604.909485 377.888550,604.120300 379.264648,604.107788 
	C382.260254,604.080688 385.256378,603.970215 388.249420,603.831299 
	C391.814270,603.665955 393.470459,605.231567 393.314301,608.881958 
	C393.172943,612.185730 393.983551,615.891724 388.866058,616.112061 
	C381.718628,616.419739 374.573151,616.774170 367.428009,617.132751 
	C364.465759,617.281372 362.695923,616.350647 362.674957,612.960510 
	C362.599792,600.805542 363.164001,588.692627 364.585815,576.618652 
	C364.767639,575.074341 364.998810,573.640991 366.931671,572.667603 
z"/>
<path fill="#000000" opacity="1.000000" stroke="none" 
	d="
M763.372559,610.344238 
	C758.629944,598.121704 760.344910,586.860535 767.148438,576.380249 
	C770.377502,571.406311 775.234375,569.159790 781.339600,570.234802 
	C787.669617,571.349609 791.208740,575.325989 792.738586,581.308167 
	C795.217773,591.002197 794.394592,600.422913 789.908508,609.395325 
	C784.755310,619.702393 769.200745,621.525024 763.372559,610.344238 
M780.118713,581.838135 
	C777.287598,580.816833 776.571533,583.065796 775.931274,584.837402 
	C773.795349,590.747803 773.963196,596.916870 774.311340,603.071533 
	C774.390137,604.465637 774.901001,605.846863 776.551270,605.871338 
	C778.061401,605.893677 778.985474,604.632935 779.366211,603.379089 
	C781.457092,596.494995 783.018127,589.549072 780.118713,581.838135 
z"/>
<path fill="#000000" opacity="1.000000" stroke="none" 
	d="
M810.891235,609.871643 
	C806.346802,598.716919 808.689575,588.333618 813.325378,578.393127 
	C815.952087,572.760620 820.899780,569.591553 827.432922,570.003784 
	C833.878723,570.410522 838.503174,573.951843 840.167358,580.798218 
	C842.707214,591.246948 842.430176,601.649170 836.343567,611.046082 
	C829.979126,620.872070 816.765381,620.349243 810.891235,609.871643 
M821.411743,594.874329 
	C821.410950,597.190369 821.293152,599.514221 821.448608,601.819763 
	C821.559814,603.468445 821.934265,605.313538 823.975525,605.597656 
	C826.116333,605.895691 826.669250,604.082703 827.249756,602.523071 
	C829.388550,596.776489 828.996582,590.799194 828.790100,584.848083 
	C828.737610,583.334900 828.513428,581.622681 826.594482,581.490967 
	C824.824219,581.369385 823.948853,582.918274 823.575745,584.331482 
	C822.734985,587.515015 822.168457,590.771057 821.411743,594.874329 
z"/>
<path fill="#000000" opacity="1.000000" stroke="none" 
	d="
M210.709412,572.085938 
	C213.684357,573.055786 213.391602,575.194702 213.295135,577.174133 
	C212.930664,584.652405 212.450684,592.125671 212.161880,599.606567 
	C212.082474,601.663208 211.703995,604.347900 214.859619,604.594360 
	C217.635056,604.811035 218.396622,602.708130 218.861115,600.411621 
	C220.421524,592.696899 219.647873,584.822754 220.473755,577.038452 
	C220.935349,572.688049 222.707489,571.842896 226.456955,571.820068 
	C230.471069,571.795593 232.317245,573.245850 232.093689,577.396179 
	C231.681824,585.041931 231.684387,592.715393 231.095047,600.344910 
	C230.250153,611.283203 223.507004,617.221252 212.652084,617.070374 
	C204.559494,616.957947 200.308701,613.041321 199.763901,604.925354 
	C199.102448,595.071594 200.781479,585.345947 201.862259,575.615662 
	C202.437210,570.439392 206.975143,572.122620 210.709412,572.085938 
z"/>
<path fill="#000000" opacity="1.000000" stroke="none" 
	d="
M635.519653,604.398682 
	C634.078003,601.068787 630.973511,600.214966 628.538452,598.574219 
	C622.589966,594.566162 620.519226,589.903687 622.011963,583.260864 
	C623.554199,576.398010 628.182129,572.018677 634.886780,571.077759 
	C644.526733,569.724976 650.102295,574.028015 650.184082,582.646484 
	C650.221313,586.565796 648.901489,588.689453 644.689575,588.365417 
	C643.374817,588.264221 641.992493,588.316772 640.997375,589.651428 
	C641.135254,591.799194 643.287292,592.251343 644.512085,593.445984 
	C648.740051,597.569702 650.987305,602.167542 649.243713,608.226013 
	C647.424744,614.546509 643.011963,617.315552 636.809937,618.006287 
	C632.185852,618.521301 627.870056,617.463745 623.684143,615.681580 
	C620.731262,614.424438 618.318787,613.046875 620.298218,608.980225 
	C622.057922,605.364746 623.923157,603.780029 628.028259,605.791321 
	C630.457458,606.981506 633.594788,608.867188 635.519653,604.398682 
z"/>
<path fill="#000000" opacity="1.000000" stroke="none" 
	d="
M322.784119,604.569458 
	C325.690765,603.333801 327.407349,605.500610 329.548035,606.157715 
	C331.288971,606.692261 333.268951,607.627441 334.401886,605.480957 
	C335.446228,603.502319 334.161591,602.012390 332.499786,600.929382 
	C330.691467,599.750977 328.754303,598.744507 327.056732,597.426758 
	C320.672791,592.471069 319.766510,584.100952 324.815857,577.627808 
	C329.815948,571.217773 339.832184,569.682983 345.767639,574.417236 
	C348.765717,576.808655 350.352295,582.864502 348.994110,586.276123 
	C348.308960,587.997131 346.999207,588.273926 345.421417,588.360840 
	C343.652466,588.458191 341.734558,588.050110 340.010315,589.886353 
	C341.894379,592.318787 344.692108,593.909119 346.447906,596.508850 
	C351.835785,604.486572 347.801941,614.680725 338.358093,616.697998 
	C332.521210,617.944763 327.020935,616.709473 322.015472,613.868408 
	C316.677795,610.838867 321.091614,607.779175 322.784119,604.569458 
z"/>
<path fill="#000000" opacity="1.000000" stroke="none" 
	d="
M305.976746,395.192657 
	C296.392944,395.880310 287.279175,396.593292 278.158569,397.204010 
	C275.425629,397.387024 274.402222,398.764954 274.346252,401.371307 
	C274.300659,403.495453 274.773102,405.694031 273.710388,407.953461 
	C270.904602,408.128174 269.840454,405.709808 268.480438,404.097046 
	C266.429108,401.664520 264.496185,401.621338 262.019104,403.291260 
	C259.354248,405.087799 256.980438,407.473083 253.232773,408.509888 
	C253.158493,405.166626 255.006821,403.340973 256.360229,401.423370 
	C258.826477,397.929016 259.537628,394.905151 255.237625,392.266663 
	C254.326767,391.707733 253.753860,390.598053 253.052490,389.774170 
	C254.277084,387.383606 256.380707,387.809326 257.984894,388.019318 
	C263.116058,388.690918 266.031769,386.414307 268.004425,381.864288 
	C269.166107,379.184814 270.641174,376.511963 273.156799,374.368134 
	C275.183105,376.164276 274.302795,378.444763 274.325409,380.412659 
	C274.411652,387.922943 274.349884,387.916565 282.052887,387.906769 
	C307.846313,387.873962 333.639740,387.827026 359.433105,387.856049 
	C361.401306,387.858276 363.738678,387.048431 365.765961,389.817596 
	C345.697083,392.418182 326.018250,393.268982 305.976746,395.192657 
z"/>
<path fill="#000000" opacity="1.000000" stroke="none" 
	d="
M730.367554,571.232971 
	C732.250183,572.907898 732.062561,574.762146 731.974121,576.595520 
	C731.606079,584.230774 731.329346,591.872009 730.830322,599.498718 
	C730.634033,602.499146 731.585876,603.881958 734.694763,603.678040 
	C736.682190,603.547607 738.695557,603.539917 740.679321,603.699890 
	C742.841675,603.874146 745.842773,602.615234 746.704407,605.682861 
	C747.600830,608.874329 747.578247,612.317993 746.237488,615.462769 
	C745.577942,617.009949 743.778687,616.981445 742.283752,617.056152 
	C735.641052,617.388184 728.996399,617.682312 722.353271,618.006714 
	C718.825256,618.178894 716.892395,616.805603 717.476318,613.007812 
	C719.302612,601.128845 718.242493,589.090088 719.485840,577.176147 
	C720.180176,570.522522 720.171814,570.443420 727.010437,570.687012 
	C728.001709,570.722412 728.987854,570.903503 730.367554,571.232971 
z"/>
<path fill="#000000" opacity="1.000000" stroke="none" 
	d="
M306.781097,584.609009 
	C306.138519,593.536743 305.692719,601.998230 306.049896,610.496033 
	C306.297028,616.375427 305.491394,617.038269 299.522736,617.065430 
	C293.285767,617.093811 292.577087,616.585266 292.828308,610.750305 
	C293.336121,598.957092 294.080414,587.174316 294.672455,575.384460 
	C294.932953,570.196899 298.784668,571.117859 301.991638,570.983215 
	C305.202789,570.848389 307.664001,571.620239 307.314575,575.663879 
	C307.070892,578.483887 306.993988,581.318298 306.781097,584.609009 
z"/>
<path fill="#000000" opacity="1.000000" stroke="none" 
	d="
M571.989807,468.211090 
	C574.276855,473.940186 572.972717,478.537109 569.017029,483.108368 
	C566.823120,479.963196 566.014221,476.599060 564.977417,473.391663 
	C561.453857,462.491058 558.002258,451.566040 554.650513,440.611420 
	C552.087585,432.235138 553.041199,430.652222 562.598938,427.306976 
	C563.493713,441.397461 568.918274,454.298523 571.989807,468.211090 
z"/>
<path fill="#000000" opacity="1.000000" stroke="none" 
	d="
M443.418884,341.685120 
	C440.737152,339.535858 439.588287,337.162170 440.554901,334.075470 
	C441.309998,331.664246 442.891724,330.115875 445.427094,329.732269 
	C448.233826,329.307678 450.751648,329.894043 452.326782,332.469788 
	C453.837677,334.940521 453.756836,337.534790 452.117889,339.917725 
	C449.960968,343.053711 446.940826,342.979065 443.418884,341.685120 
z"/>
<path fill="#000000" opacity="1.000000" stroke="none" 
	d="
M442.885132,326.053406 
	C441.027222,322.449371 441.834167,319.786194 445.008850,318.227570 
	C447.470337,317.019104 449.937164,317.637878 451.615631,319.944672 
	C453.417358,322.420807 453.361542,325.133789 451.008362,327.056732 
	C448.414490,329.176392 445.534637,329.100250 442.885132,326.053406 
z"/>
<path fill="#000000" opacity="1.000000" stroke="none" 
	d="
M452.039612,310.095642 
	C451.308868,313.757324 449.204620,315.012329 446.144226,313.924957 
	C443.683594,313.050690 443.266876,310.873016 444.037018,308.549347 
	C444.555054,306.986267 445.857819,306.095917 447.425446,305.980621 
	C450.010010,305.790558 451.315887,307.432556 452.039612,310.095642 
z"/>
<path fill="#000000" opacity="1.000000" stroke="none" 
	d="
M447.239777,300.356445 
	C444.855682,299.001953 444.282654,297.329346 445.698273,295.311920 
	C446.508087,294.157867 447.753876,293.643158 449.165344,294.189636 
	C450.711395,294.788239 451.494568,295.991394 451.347382,297.655243 
	C451.144775,299.945923 449.701019,300.680542 447.239777,300.356445 
z"/>
<path fill="#000000" opacity="1.000000" stroke="none" 
	d="
M438.523499,399.562103 
	C437.144226,400.117126 435.889313,400.032776 436.566742,398.602234 
	C437.426605,396.786438 437.342865,394.478821 438.137421,393.151031 
	C441.981842,386.726654 447.038635,381.206268 453.312408,374.979553 
	C452.249695,386.656433 444.576721,392.412628 438.523499,399.562103 
z"/>
</svg>